<svg xmlns="http://www.w3.org/2000/svg" viewBox="0 0 100 100" fill="none">
  <defs>
    <radialGradient id="f-fill" cx="50%" cy="35%" r="65%">
      <stop offset="0%"   stop-color="#fdd87a"/>
      <stop offset="45%"  stop-color="#e8a44a"/>
      <stop offset="100%" stop-color="#b96e18"/>
    </radialGradient>
  </defs>
  <g transform="translate(50,50)">
    <path transform="rotate(0)"   d="M 0,-43 L -5.5,-23 L -4,-11 L 4,-11 L 5.5,-23 Z" fill="url(#f-fill)"/>
    <path transform="rotate(90)"  d="M 0,-43 L -5.5,-23 L -4,-11 L 4,-11 L 5.5,-23 Z" fill="url(#f-fill)"/>
    <path transform="rotate(180)" d="M 0,-43 L -5.5,-23 L -4,-11 L 4,-11 L 5.5,-23 Z" fill="url(#f-fill)"/>
    <path transform="rotate(270)" d="M 0,-43 L -5.5,-23 L -4,-11 L 4,-11 L 5.5,-23 Z" fill="url(#f-fill)"/>
    <path transform="rotate(45)"  d="M 0,-27 L -4,-16 L 0,-10 L 4,-16 Z" fill="url(#f-fill)"/>
    <path transform="rotate(135)" d="M 0,-27 L -4,-16 L 0,-10 L 4,-16 Z" fill="url(#f-fill)"/>
    <path transform="rotate(225)" d="M 0,-27 L -4,-16 L 0,-10 L 4,-16 Z" fill="url(#f-fill)"/>
    <path transform="rotate(315)" d="M 0,-27 L -4,-16 L 0,-10 L 4,-16 Z" fill="url(#f-fill)"/>
    <path d="M 3.3,-18.7  A 19,19 0 0,1 18.7,-3.3"  stroke="#e8a44a" stroke-width="1.6"/>
    <path d="M 18.7,3.3   A 19,19 0 0,1 3.3,18.7"   stroke="#e8a44a" stroke-width="1.6"/>
    <path d="M -3.3,18.7  A 19,19 0 0,1 -18.7,3.3"  stroke="#e8a44a" stroke-width="1.6"/>
    <path d="M -18.7,-3.3 A 19,19 0 0,1 -3.3,-18.7" stroke="#e8a44a" stroke-width="1.6"/>
    <circle cx="3.3"   cy="-18.7" r="2.2" fill="#e8a44a"/>
    <circle cx="18.7"  cy="-3.3"  r="2.2" fill="#e8a44a"/>
    <circle cx="18.7"  cy="3.3"   r="2.2" fill="#e8a44a"/>
    <circle cx="3.3"   cy="18.7"  r="2.2" fill="#e8a44a"/>
    <circle cx="-3.3"  cy="18.7"  r="2.2" fill="#e8a44a"/>
    <circle cx="-18.7" cy="3.3"   r="2.2" fill="#e8a44a"/>
    <circle cx="-18.7" cy="-3.3"  r="2.2" fill="#e8a44a"/>
    <circle cx="-3.3"  cy="-18.7" r="2.2" fill="#e8a44a"/>
    <circle r="9.5" stroke="#e8a44a" stroke-width="1.4" opacity="0.75"/>
    <circle r="3.5" fill="url(#f-fill)"/>
  </g>
</svg>
